<svg xmlns="http://www.w3.org/2000/svg" viewBox="0 0 593 341" width="593" height="341" role="img"
    aria-label="Task Manager uygulaması bir dizüstü ekranında: Yapılacak, Devam Eden ve Tamamlandı sütunlarıyla Kanban panosu">
  <defs>
    <clipPath id="k-scr"><rect x="58" y="43" width="477" height="252"/></clipPath>
  </defs>

  <!-- laptop body -->
  <rect x="47" y="6" width="499" height="300" rx="15" fill="#1c1c20" stroke="#3c3c44"/>
  <rect x="58" y="17" width="477" height="278" rx="5" fill="#0f1117"/>

  <!-- browser bar -->
  <path d="M58 22a5 5 0 0 1 5-5h467a5 5 0 0 1 5 5v21H58z" fill="#e8e9ed"/>
  <circle cx="72" cy="30" r="2.6" fill="#ff5f56"/><circle cx="82" cy="30" r="2.6" fill="#ffbd2e"/><circle cx="92" cy="30" r="2.6" fill="#27c93f"/>
  <rect x="176" y="24" width="220" height="13" rx="6.5" fill="#ffffff"/>
  <circle cx="188" cy="30.5" r="2.4" fill="#22c55e"/>
  <text x="196" y="33.5" font-family="'Segoe UI',Inter,Arial,sans-serif" font-size="7.5" fill="#6b7280">taskflow.app/board</text>

  <!-- ===== SCREEN CONTENT ===== -->
  <g clip-path="url(#k-scr)">
    <rect x="58" y="43" width="477" height="252" fill="#0f1117"/>
    <g transform="translate(-9.76,12.02) scale(1.0328)" font-family="'Segoe UI',Inter,Arial,sans-serif">
      <!-- sidebar -->
      <rect x="84" y="30" width="66" height="244" fill="#151823"/>
      <rect x="95" y="42" width="14" height="14" rx="4" fill="#2563eb"/>
      <text x="114" y="52.5" fill="#eef0f5" font-size="8" font-weight="700">TaskFlow</text>
      <rect x="92" y="70" width="50" height="15" rx="5" fill="#2563eb" fill-opacity="0.16"/>
      <circle cx="100" cy="77.5" r="2.2" fill="#2563eb"/><text x="107" y="80.5" fill="#cfd6e6" font-size="6.5" font-weight="600">Board</text>
      <circle cx="100" cy="97" r="2.2" fill="#565d70"/><text x="107" y="100" fill="#8890a3" font-size="6.5">Dashboard</text>
      <circle cx="100" cy="114" r="2.2" fill="#565d70"/><text x="107" y="117" fill="#8890a3" font-size="6.5">Calendar</text>
      <circle cx="100" cy="131" r="2.2" fill="#565d70"/><text x="107" y="134" fill="#8890a3" font-size="6.5">Team</text>
      <circle cx="100" cy="148" r="2.2" fill="#565d70"/><text x="107" y="151" fill="#8890a3" font-size="6.5">Reports</text>
      <circle cx="100" cy="165" r="2.2" fill="#565d70"/><text x="107" y="168" fill="#8890a3" font-size="6.5">Settings</text>
      <rect x="92" y="252" width="50" height="1" fill="#242838"/>
      <circle cx="100" cy="264" r="4.5" fill="#3b82f6"/><text x="100" y="266.3" fill="#fff" font-size="5" font-weight="700" text-anchor="middle">TC</text>
      <text x="108" y="266" fill="#c7cdda" font-size="6">Taha Ç.</text>

      <!-- top bar -->
      <text x="160" y="49" fill="#f4f6fa" font-size="11" font-weight="700">Team Workflow</text>
      <rect x="352" y="40" width="72" height="16" rx="8" fill="#1b1f2c"/>
      <circle cx="361" cy="48" r="2.6" fill="none" stroke="#7a8296" stroke-width="1"/><text x="368" y="50.5" fill="#7a8296" font-size="6">Search tasks</text>
      <rect x="431" y="40" width="55" height="16" rx="8" fill="#2563eb"/>
      <text x="458.5" y="50.5" fill="#fff" font-size="6.5" font-weight="600" text-anchor="middle">+ New Task</text>
      <circle cx="498" cy="48" r="7" fill="#e879a6"/><text x="498" y="50.5" fill="#fff" font-size="6" font-weight="700" text-anchor="middle">AK</text>

      <!-- column headers -->
      <circle cx="163" cy="68" r="2.4" fill="#64748b"/><text x="169" y="70.5" fill="#c7cdda" font-size="7" font-weight="600">To Do</text><text x="262" y="70.5" fill="#6b7385" font-size="6.5" text-anchor="end">4</text>
      <circle cx="280" cy="68" r="2.4" fill="#f59e0b"/><text x="286" y="70.5" fill="#c7cdda" font-size="7" font-weight="600">In Progress</text><text x="379" y="70.5" fill="#6b7385" font-size="6.5" text-anchor="end">3</text>
      <circle cx="397" cy="68" r="2.4" fill="#22c55e"/><text x="403" y="70.5" fill="#c7cdda" font-size="7" font-weight="600">Done</text><text x="496" y="70.5" fill="#6b7385" font-size="6.5" text-anchor="end">6</text>

      <!-- column 1 : To Do -->
      <rect x="160" y="78" width="108" height="48" rx="7" fill="#1a1e2b"/>
      <rect x="168" y="85" width="26" height="9" rx="4.5" fill="#7c3aed" fill-opacity="0.25"/><text x="181" y="91.3" fill="#a78bfa" font-size="5" font-weight="600" text-anchor="middle">Design</text>
      <text x="168" y="106" fill="#e6e8ee" font-size="7" font-weight="600">Onboarding flow</text>
      <rect x="168" y="112" width="70" height="3" rx="1.5" fill="#2a3040"/><rect x="168" y="112" width="42" height="3" rx="1.5" fill="#7c3aed"/>
      <circle cx="171" cy="121" r="3.5" fill="#38bdf8"/><text x="255" y="123" fill="#6b7385" font-size="5.5" text-anchor="end">Dec 12</text>
      <rect x="160" y="130" width="108" height="42" rx="7" fill="#1a1e2b"/>
      <rect x="168" y="137" width="20" height="9" rx="4.5" fill="#ef4444" fill-opacity="0.25"/><text x="178" y="143.3" fill="#f87171" font-size="5" font-weight="600" text-anchor="middle">Bug</text>
      <text x="168" y="158" fill="#e6e8ee" font-size="7" font-weight="600">Fix auth redirect</text>
      <circle cx="171" cy="165" r="3.5" fill="#fbbf24"/><text x="255" y="167" fill="#6b7385" font-size="5.5" text-anchor="end">Dec 14</text>
      <rect x="160" y="176" width="108" height="42" rx="7" fill="#1a1e2b"/>
      <rect x="168" y="183" width="24" height="9" rx="4.5" fill="#2563eb" fill-opacity="0.25"/><text x="180" y="189.3" fill="#60a5fa" font-size="5" font-weight="600" text-anchor="middle">Docs</text>
      <text x="168" y="204" fill="#e6e8ee" font-size="7" font-weight="600">Write API guide</text>
      <circle cx="171" cy="211" r="3.5" fill="#34d399"/><text x="255" y="213" fill="#6b7385" font-size="5.5" text-anchor="end">Dec 18</text>

      <!-- column 2 : In Progress -->
      <rect x="277" y="78" width="108" height="52" rx="7" fill="#1a1e2b" stroke="#2563eb" stroke-width="1"/>
      <rect x="285" y="85" width="30" height="9" rx="4.5" fill="#10b981" fill-opacity="0.25"/><text x="300" y="91.3" fill="#34d399" font-size="5" font-weight="600" text-anchor="middle">Backend</text>
      <text x="285" y="106" fill="#e6e8ee" font-size="7" font-weight="600">Payment API</text>
      <rect x="285" y="112" width="70" height="3" rx="1.5" fill="#2a3040"/><rect x="285" y="112" width="52" height="3" rx="1.5" fill="#2563eb"/>
      <text x="285" y="124" fill="#6b7385" font-size="5.5">74%</text>
      <circle cx="372" cy="121" r="3.5" fill="#f472b6"/>
      <rect x="277" y="134" width="108" height="46" rx="7" fill="#1a1e2b"/>
      <rect x="285" y="141" width="34" height="9" rx="4.5" fill="#f59e0b" fill-opacity="0.25"/><text x="302" y="147.3" fill="#fbbf24" font-size="5" font-weight="600" text-anchor="middle">Frontend</text>
      <text x="285" y="162" fill="#e6e8ee" font-size="7" font-weight="600">Dashboard charts</text>
      <rect x="285" y="168" width="70" height="3" rx="1.5" fill="#2a3040"/><rect x="285" y="168" width="30" height="3" rx="1.5" fill="#f59e0b"/>
      <circle cx="372" cy="174" r="3.5" fill="#38bdf8"/>
      <rect x="277" y="184" width="108" height="34" rx="7" fill="#1a1e2b"/>
      <rect x="285" y="191" width="24" height="9" rx="4.5" fill="#06b6d4" fill-opacity="0.25"/><text x="297" y="197.3" fill="#22d3ee" font-size="5" font-weight="600" text-anchor="middle">QA</text>
      <text x="285" y="211" fill="#e6e8ee" font-size="7" font-weight="600">Test checkout</text>

      <!-- column 3 : Done -->
      <g opacity="0.9">
        <rect x="394" y="78" width="108" height="40" rx="7" fill="#171b26"/>
        <text x="402" y="93" fill="#22c55e" font-size="6.5">&#10003;</text>
        <text x="410" y="93" fill="#aeb4c2" font-size="7" font-weight="600">User login page</text>
        <rect x="402" y="100" width="30" height="9" rx="4.5" fill="#fb923c" fill-opacity="0.2"/><text x="417" y="106.3" fill="#fdba74" font-size="5" font-weight="600" text-anchor="middle">Frontend</text>
      </g>
      <g opacity="0.9">
        <rect x="394" y="122" width="108" height="40" rx="7" fill="#171b26"/>
        <text x="402" y="137" fill="#22c55e" font-size="6.5">&#10003;</text>
        <text x="410" y="137" fill="#aeb4c2" font-size="7" font-weight="600">CI/CD pipeline</text>
        <rect x="402" y="144" width="30" height="9" rx="4.5" fill="#22d3ee" fill-opacity="0.2"/><text x="417" y="150.3" fill="#67e8f9" font-size="5" font-weight="600" text-anchor="middle">DevOps</text>
      </g>
      <g opacity="0.9">
        <rect x="394" y="166" width="108" height="40" rx="7" fill="#171b26"/>
        <text x="402" y="181" fill="#22c55e" font-size="6.5">&#10003;</text>
        <text x="410" y="181" fill="#aeb4c2" font-size="7" font-weight="600">DB schema</text>
        <rect x="402" y="188" width="30" height="9" rx="4.5" fill="#34d399" fill-opacity="0.2"/><text x="417" y="194.3" fill="#6ee7b7" font-size="5" font-weight="600" text-anchor="middle">Backend</text>
      </g>
    </g>
  </g>

  <!-- base -->
  <path d="M22 306h549l-12 15H34z" fill="#9b9da5"/>
  <path d="M22 306h549l-2 3H24z" fill="#c3c5cc"/>
  <rect x="272" y="306" width="49" height="5" rx="2.5" fill="#7c7e86"/>
</svg>
